<svg width="15" height="12" viewBox="0 0 15 12" fill="none" xmlns="http://www.w3.org/2000/svg">
<path fill-rule="evenodd" clip-rule="evenodd" d="M11.8379 5.91828C11.8379 2.61066 9.10767 0 5.91961 0C2.75736 0 0.00133324 2.49095 0.00133324 5.8237C0.00133324 9.13131 2.73155 11.742 5.91961 11.742H6.91961V9.74198H5.91961C3.81106 9.74198 2.00133 8.00185 2.00133 5.8237C2.00133 3.67067 3.78525 2 5.91961 2C8.02816 2 9.83789 3.74012 9.83789 5.91828V6.91828H11.8379V5.91828Z" fill="white"/>
<path fill-rule="evenodd" clip-rule="evenodd" d="M13.0018 4.125L10.5427 6.58414L8.08352 4.125L6.66931 5.53921L10.5427 9.41257L14.416 5.53921L13.0018 4.125Z" fill="white"/>
</svg>
